# xmcd
#
# Track frame offsets: 
#        150
#        24655
#        38088
#        49842
#        66900
#        81626
#        99741
#        117763
#        131021
#        145007
#        160428
#        175054
#        194228
#        214283
#        234263
#        253675
#        268836
#        294889
#        315035
#
# Disc length: 4350 seconds
#
# Revision: 0
# Processed by: cddbd v1.5.2PL0 Copyright (c) Steve Scherf et al.
# Submitted via: ExactAudioCopy v0.99pb5
#
DISCID=1a10fc13
DTITLE=Various Artist - The Blues CD2 - USA Post War Bluesplayers - 2
DYEAR=2009
DGENRE=Blues
TTITLE0=Clarence Gatemouth Brown - Dollar Got The Blues
TTITLE1=Buddy Guy - Stone Crazy
TTITLE2=BB King - Paying The Cost To Be The Boss
TTITLE3=Freddie King - Texas Flyer
TTITLE4=Etta James - W-O-M-A-N
TTITLE5=Muddy Waters - My Home Is In The Delta
TTITLE6=Alberta Hunter - A Good Man Is A Hard To Find
TTITLE7=Howlin Wolf - Evil
TTITLE8=Lowell Fulson - Tollin' Bells
TTITLE9=Chuck Berry - Blues For Hawaiians
TTITLE10=Bo Diddley - You Can't Judge a Book by Its Cover
TTITLE11=Lightnin Hopkins - I Been Burning Bad Gasoline
TTITLE12=Eddie Boyd - The Train Is Coming (of Five Long Years)
TTITLE13=Willie Dixon - It Don't Make Sense (You Can't Make Peace)
TTITLE14=Albert Collins - Honey Hush
TTITLE15=Earl King - The Panic's On
TTITLE16=Johnny "Guitar" Watson - I Want To Ta-Ta You Baby
TTITLE17=John Hammond Jr. - Sweet Home Chicago
TTITLE18=Junior Wells - You're Tough Enough
EXTD=
EXTT0=
EXTT1=
EXTT2=
EXTT3=
EXTT4=
EXTT5=
EXTT6=
EXTT7=
EXTT8=
EXTT9=
EXTT10=
EXTT11=
EXTT12=
EXTT13=
EXTT14=
EXTT15=
EXTT16=
EXTT17=
EXTT18=
PLAYORDER=
